<svg width="37" height="36" viewBox="0 0 37 36" fill="none" xmlns="http://www.w3.org/2000/svg">
<path d="M8.92578 15.5334V4.9397L19.7078 4.8667L27.3078 9.7667L27.4078 18.4667L19.4501 22.8047L16.1411 20.99V17.9997L19.5078 19.8334L24.6381 16.9687L24.6335 11.4667L18.6334 7.63503L11.3801 7.73337L11.3744 14.2334L8.92578 15.5334Z" fill="white"/>
<path d="M19.4078 18.0001L19.3994 15.0031L16.1834 13.1804L8.92578 17.5081V31.1204L16.9374 31.1334H22.2744L27.3744 27.9334L27.3874 19.9631L24.9078 21.3668L24.9001 25.9001L20.9668 28.3668L11.5411 28.4334L11.4744 19.2001L16.1744 16.2334L19.4078 18.0001Z" fill="white"/>
</svg>
